<mxfile host="65bd71144e">
    <diagram name="ページ1" id="gHZUpx31_Xp7q7nzsabh">
        <mxGraphModel dx="425" dy="650" grid="1" gridSize="10" guides="1" tooltips="1" connect="1" arrows="1" fold="1" page="1" pageScale="1" pageWidth="827" pageHeight="1169" math="0" shadow="0">
            <root>
                <mxCell id="0"/>
                <mxCell id="1" parent="0"/>
                <mxCell id="Lj6rKQSell5GNBeuxk0w-1" value="開始" style="ellipse;whiteSpace=wrap;html=1;" parent="1" vertex="1">
                    <mxGeometry x="260" y="20" width="120" height="60" as="geometry"/>
                </mxCell>
                <mxCell id="Lj6rKQSell5GNBeuxk0w-2" value="a, b, c を入力" style="parallelogram;whiteSpace=wrap;html=1;" parent="1" vertex="1">
                    <mxGeometry x="230" y="120" width="180" height="60" as="geometry"/>
                </mxCell>
                <mxCell id="Lj6rKQSell5GNBeuxk0w-3" value="max = a" style="rectangle;whiteSpace=wrap;html=1;" parent="1" vertex="1">
                    <mxGeometry x="260" y="220" width="120" height="60" as="geometry"/>
                </mxCell>
                <mxCell id="Lj6rKQSell5GNBeuxk0w-4" value="b &gt; max ?" style="rhombus;whiteSpace=wrap;html=1;" parent="1" vertex="1">
                    <mxGeometry x="260" y="340" width="120" height="80" as="geometry"/>
                </mxCell>
                <mxCell id="Lj6rKQSell5GNBeuxk0w-5" value="max = b" style="rectangle;whiteSpace=wrap;html=1;" parent="1" vertex="1">
                    <mxGeometry x="100" y="460" width="120" height="60" as="geometry"/>
                </mxCell>
                <mxCell id="Lj6rKQSell5GNBeuxk0w-6" value="c &gt; max ?" style="rhombus;whiteSpace=wrap;html=1;" parent="1" vertex="1">
                    <mxGeometry x="410" y="450" width="120" height="80" as="geometry"/>
                </mxCell>
                <mxCell id="Lj6rKQSell5GNBeuxk0w-7" value="max = c" style="rectangle;whiteSpace=wrap;html=1;" parent="1" vertex="1">
                    <mxGeometry x="430" y="570" width="120" height="60" as="geometry"/>
                </mxCell>
                <mxCell id="Lj6rKQSell5GNBeuxk0w-8" value="max を表示" style="parallelogram;whiteSpace=wrap;html=1;" parent="1" vertex="1">
                    <mxGeometry x="220" y="640" width="180" height="60" as="geometry"/>
                </mxCell>
                <mxCell id="Lj6rKQSell5GNBeuxk0w-9" value="終了" style="ellipse;whiteSpace=wrap;html=1;" parent="1" vertex="1">
                    <mxGeometry x="250" y="760" width="120" height="60" as="geometry"/>
                </mxCell>
                <mxCell id="Lj6rKQSell5GNBeuxk0w-10" style="edgeStyle=orthogonalEdgeStyle;rounded=0;html=1;" parent="1" source="Lj6rKQSell5GNBeuxk0w-1" target="Lj6rKQSell5GNBeuxk0w-2" edge="1">
                    <mxGeometry relative="1" as="geometry"/>
                </mxCell>
                <mxCell id="Lj6rKQSell5GNBeuxk0w-11" style="edgeStyle=orthogonalEdgeStyle;rounded=0;html=1;" parent="1" source="Lj6rKQSell5GNBeuxk0w-2" target="Lj6rKQSell5GNBeuxk0w-3" edge="1">
                    <mxGeometry relative="1" as="geometry"/>
                </mxCell>
                <mxCell id="Lj6rKQSell5GNBeuxk0w-12" style="edgeStyle=orthogonalEdgeStyle;rounded=0;html=1;" parent="1" source="Lj6rKQSell5GNBeuxk0w-3" target="Lj6rKQSell5GNBeuxk0w-4" edge="1">
                    <mxGeometry relative="1" as="geometry"/>
                </mxCell>
                <mxCell id="Lj6rKQSell5GNBeuxk0w-13" value="true" style="edgeStyle=orthogonalEdgeStyle;rounded=0;html=1;exitX=0.25;exitY=1;entryX=0.5;entryY=0;jettySize=auto;" parent="1" source="Lj6rKQSell5GNBeuxk0w-4" target="Lj6rKQSell5GNBeuxk0w-5" edge="1">
                    <mxGeometry relative="1" as="geometry"/>
                </mxCell>
                <mxCell id="Lj6rKQSell5GNBeuxk0w-14" value="false" style="edgeStyle=orthogonalEdgeStyle;rounded=0;html=1;exitX=0.75;exitY=1;entryX=0.5;entryY=0;jettySize=auto;" parent="1" source="Lj6rKQSell5GNBeuxk0w-4" target="Lj6rKQSell5GNBeuxk0w-6" edge="1">
                    <mxGeometry relative="1" as="geometry"/>
                </mxCell>
                <mxCell id="Lj6rKQSell5GNBeuxk0w-15" style="edgeStyle=orthogonalEdgeStyle;rounded=0;html=1;" parent="1" source="Lj6rKQSell5GNBeuxk0w-5" target="Lj6rKQSell5GNBeuxk0w-6" edge="1">
                    <mxGeometry relative="1" as="geometry"/>
                </mxCell>
                <mxCell id="Lj6rKQSell5GNBeuxk0w-16" value="true" style="edgeStyle=orthogonalEdgeStyle;rounded=0;html=1;exitX=0.75;exitY=1;entryX=0.5;entryY=0;jettySize=auto;" parent="1" source="Lj6rKQSell5GNBeuxk0w-6" target="Lj6rKQSell5GNBeuxk0w-7" edge="1">
                    <mxGeometry relative="1" as="geometry"/>
                </mxCell>
                <mxCell id="Lj6rKQSell5GNBeuxk0w-17" value="false" style="edgeStyle=orthogonalEdgeStyle;rounded=0;html=1;exitX=0.25;exitY=1;entryX=0.5;entryY=0;jettySize=auto;" parent="1" source="Lj6rKQSell5GNBeuxk0w-6" target="Lj6rKQSell5GNBeuxk0w-8" edge="1">
                    <mxGeometry relative="1" as="geometry"/>
                </mxCell>
                <mxCell id="Lj6rKQSell5GNBeuxk0w-18" style="edgeStyle=orthogonalEdgeStyle;rounded=0;html=1;" parent="1" source="Lj6rKQSell5GNBeuxk0w-7" target="Lj6rKQSell5GNBeuxk0w-8" edge="1">
                    <mxGeometry relative="1" as="geometry"/>
                </mxCell>
                <mxCell id="Lj6rKQSell5GNBeuxk0w-19" style="edgeStyle=orthogonalEdgeStyle;rounded=0;html=1;" parent="1" source="Lj6rKQSell5GNBeuxk0w-8" target="Lj6rKQSell5GNBeuxk0w-9" edge="1">
                    <mxGeometry relative="1" as="geometry"/>
                </mxCell>
            </root>
        </mxGraphModel>
    </diagram>
</mxfile>